<?xml version="1.0" standalone="no"?>
<!DOCTYPE svg PUBLIC "-//W3C//DTD SVG 20010904//EN"
 "http://www.w3.org/TR/2001/REC-SVG-20010904/DTD/svg10.dtd">
<svg version="1.0" xmlns="http://www.w3.org/2000/svg"
 width="163.000000pt" height="163.000000pt" viewBox="0 0 163.000000 163.000000"
 preserveAspectRatio="xMidYMid meet">
<metadata>
Created by potrace 1.14, written by Peter Selinger 2001-2017
</metadata>
<g transform="translate(0.000000,163.000000) scale(0.100000,-0.100000)"
fill="#000000" stroke="none">
<path d="M346 1597 c-80 -80 -128 -289 -102 -447 9 -53 8 -82 -6 -159 -16 -86
-23 -161 -20 -203 2 -21 40 -25 47 -5 2 6 6 37 8 67 3 30 13 98 22 151 12 68
14 107 7 130 -15 57 -14 190 3 254 19 73 60 165 74 165 25 0 181 -147 181
-170 0 -19 55 -27 87 -13 31 13 86 24 128 27 15 1 21 -6 23 -31 4 -41 30 -52
38 -15 10 47 13 52 29 46 8 -3 12 -10 9 -15 -3 -5 2 -12 11 -16 10 -3 21 0 25
7 8 13 25 11 89 -9 37 -11 29 -17 132 97 25 28 62 60 82 72 l36 21 25 -48 c55
-110 70 -215 49 -348 -7 -44 -11 -87 -8 -95 11 -38 35 -189 38 -240 2 -35 6
-46 21 -48 10 -2 22 2 27 9 12 20 -1 147 -25 252 -8 35 -9 62 -3 78 18 47 16
210 -3 286 -21 79 -62 171 -92 203 l-20 21 -46 -27 c-26 -14 -81 -61 -122
-104 l-75 -77 -45 14 c-74 24 -217 25 -294 4 l-66 -18 -48 55 c-39 45 -124
114 -179 146 -8 4 -23 -3 -37 -17z"/>
<path d="M380 1428 c-11 -18 -20 -38 -20 -45 0 -23 23 -26 41 -4 l17 21 31
-37 31 -37 -38 -40 c-20 -22 -43 -47 -51 -55 -12 -14 -14 -8 -9 40 7 67 -1 88
-26 64 -30 -30 -14 -195 19 -195 8 0 22 14 31 32 9 18 41 58 71 90 39 40 52
61 46 71 -17 31 -76 96 -99 112 -23 15 -25 14 -44 -17z"/>
<path d="M1173 1420 c-22 -21 -50 -52 -62 -69 l-22 -30 50 -51 c27 -28 60 -68
72 -90 13 -22 29 -40 36 -40 17 0 33 41 33 86 0 27 -4 34 -20 34 -14 0 -20 -7
-21 -22 0 -22 -1 -22 -12 -4 -7 10 -28 36 -48 56 l-36 38 33 38 c36 41 35 42
57 -36 16 -56 42 -62 41 -9 -1 43 -32 126 -49 133 -7 2 -31 -13 -52 -34z"/>
<path d="M535 1036 c-34 -52 29 -107 74 -65 25 24 26 37 5 67 -20 29 -59 29
-79 -2z"/>
<path d="M1016 1045 c-37 -37 0 -103 48 -86 32 12 49 51 32 76 -17 26 -59 31
-80 10z"/>
<path d="M746 894 c-12 -31 -5 -61 22 -100 33 -46 34 -80 2 -106 -62 -50 -135
-27 -187 57 -10 16 -14 17 -21 6 -24 -35 46 -117 108 -127 32 -5 37 -9 35 -33
-2 -40 14 -104 33 -125 9 -10 30 -24 47 -31 25 -11 35 -11 65 5 50 25 63 57
70 173 0 4 9 7 20 7 51 0 134 74 128 113 -5 34 -26 30 -44 -8 -21 -46 -64 -69
-112 -60 -52 9 -74 29 -78 69 -3 25 2 42 19 63 30 36 39 79 20 99 -21 20 -119
19 -127 -2z m49 -265 c-4 -5 3 -9 14 -9 12 0 21 7 21 15 0 12 5 12 24 4 22
-10 24 -17 22 -63 -3 -62 -29 -106 -62 -106 -28 0 -64 35 -65 64 -1 12 -3 34
-5 49 -2 18 4 35 17 48 19 19 46 18 34 -2z"/>
<path d="M798 588 c-11 -31 -3 -73 15 -76 16 -3 18 2 15 39 -3 41 -21 63 -30
37z"/>
<path d="M1150 374 c-72 -31 -110 -90 -110 -170 0 -108 76 -184 184 -184 53 0
93 14 124 42 18 18 22 32 22 80 l0 59 -72 -3 c-75 -3 -76 -3 -69 -47 0 -4 13
-8 29 -9 47 0 52 -2 52 -17 0 -20 -39 -44 -76 -47 -100 -7 -165 111 -108 199
32 50 115 64 168 29 24 -15 28 -15 52 1 l26 17 -26 22 c-49 43 -134 55 -196
28z"/>
<path d="M286 371 c-6 -10 -5 -314 1 -335 5 -17 13 -18 95 -14 80 5 93 8 126
35 44 35 61 67 66 120 6 79 -29 149 -90 178 -36 17 -190 29 -198 16z m179 -77
c35 -23 52 -83 37 -132 -16 -53 -43 -74 -102 -80 l-50 -5 0 122 0 121 45 -4
c24 -3 56 -13 70 -22z"/>
<path d="M746 373 c-10 -3 -24 -9 -30 -14 -6 -5 -20 -17 -32 -27 -63 -51 -72
-168 -20 -237 30 -39 94 -74 136 -75 102 0 190 85 190 182 -1 49 -33 112 -75
144 -29 22 -49 28 -93 30 -32 2 -66 0 -76 -3z"/>
</g>
</svg>
